/* XPM */
static char * battery14_xpm[] = {
"14 14 71 1",
" 	c None",
".	c #B4B5B8",
"+	c #B0B2B4",
"@	c #96A071",
"#	c #B0C45D",
"$	c #ACC15C",
"%	c #CBCCD0",
"&	c #ACAEB2",
"*	c #A1B54E",
"=	c #AFC35B",
"-	c #8A9465",
";	c #9EB064",
">	c #B9DA43",
",	c #C0DE54",
"'	c #C2DC75",
")	c #BCD66C",
"!	c #B9D554",
"~	c #ACC645",
"{	c #93A05D",
"]	c #9BAE5D",
"^	c #A5D005",
"/	c #AFDB16",
"(	c #AAD320",
"_	c #A3C81F",
":	c #9ABC16",
"<	c #8CAB04",
"[	c #8E9A54",
"}	c #99AC58",
"|	c #A4D002",
"1	c #ABD800",
"2	c #A4D000",
"3	c #9CC400",
"4	c #95B800",
"5	c #8CAA02",
"6	c #8A984E",
"7	c #95AA53",
"8	c #A5D002",
"9	c #A3CF00",
"0	c #879447",
"a	c #92A94F",
"b	c #A5D001",
"c	c #8CAB01",
"d	c #829240",
"e	c #8EA74A",
"f	c #A5D101",
"g	c #7F8E3B",
"h	c #8CA548",
"i	c #A5D100",
"j	c #9DC400",
"k	c #8DAB01",
"l	c #7B8C37",
"m	c #88A346",
"n	c #8DAB00",
"o	c #768833",
"p	c #86A145",
"q	c #8DAC00",
"r	c #738431",
"s	c #839E44",
"t	c #A7D300",
"u	c #ABD900",
"v	c #95B900",
"w	c #8EAD00",
"x	c #6F8130",
"y	c #606857",
"z	c #7D9041",
"A	c #99BC20",
"B	c #96BA1D",
"C	c #8FB01C",
"D	c #86A21C",
"E	c #687735",
"F	c #4D5243",
"      .+      ",
"   @#$%&*=-   ",
"   ;>,')!~{   ",
"   ]^/(_:<[   ",
"   }|123456   ",
"   78193450   ",
"   ab1934cd   ",
"   ef1234cg   ",
"   hi12j4kl   ",
"   mi1934no   ",
"   pi1234qr   ",
"   stu2jvwx   ",
"   yzABCDEF   ",
"              "};
