/* XPM */
static char * calendar14_xpm[] = {
"14 14 67 1",
" 	c None",
".	c #BCC2C6",
"+	c #E34C3E",
"@	c #9BAEB0",
"#	c #E34B3C",
"$	c #E74C3C",
"%	c #E64B3B",
"&	c #E34B3D",
"*	c #DD4838",
"=	c #B06E69",
"-	c #DD4738",
";	c #E74937",
">	c #E64736",
",	c #E74837",
"'	c #E64836",
")	c #EBE3E3",
"!	c #EAE3E3",
"~	c #EBEFF0",
"{	c #CED3D6",
"]	c #E5E9EB",
"^	c #D1D6D8",
"/	c #DADFE1",
"(	c #CFD4D7",
"_	c #D1D6D9",
":	c #DBDFE1",
"<	c #D7DDDE",
"[	c #AFB8BB",
"}	c #D5DCDD",
"|	c #BEC4C7",
"1	c #E2E6E8",
"2	c #C2C8CB",
"3	c #B0BABC",
"4	c #677780",
"5	c #435465",
"6	c #455766",
"7	c #7F8F93",
"8	c #ECF0F1",
"9	c #E1E5E7",
"0	c #E9EDEE",
"a	c #687882",
"b	c #33485D",
"c	c #818A94",
"d	c #364A5F",
"e	c #384C60",
"f	c #79888C",
"g	c #B8BFC3",
"h	c #3E5163",
"i	c #34495E",
"j	c #77838E",
"k	c #808C94",
"l	c #858E97",
"m	c #809095",
"n	c #4A5C6C",
"o	c #4D4757",
"p	c #695C68",
"q	c #394D61",
"r	c #374B5F",
"s	c #7B8B8F",
"t	c #C3C8CC",
"u	c #C3C9CC",
"v	c #BFC6C9",
"w	c #87979A",
"x	c #494E5E",
"y	c #4C5E6E",
"z	c #78878B",
"A	c #7D8D92",
"B	c #7C8C91",
"              ",
"   .      .   ",
"  +@#$$%%&@+  ",
"  *=-%%%%*=-  ",
"  ;>,,;'';>,  ",
"  )!)!)!!)!)  ",
"  ~{]^//^]{~  ",
"  ~(]_::_<[}  ",
"  ~|12__34567 ",
"  8901]<abcdef",
"  ~g9|([hijklm",
"  0~8~8}nopqrs",
"  tuuuuvwxbiy ",
"         zAB  "};
