/* XPM */
static char * download14_xpm[] = {
"14 14 33 1",
" 	c #000000",
".	c #BFBFBF",
"+	c #FFFFFF",
"@	c #D5D5D5",
"#	c #D6D6D6",
"$	c #010101",
"%	c #9A9A9A",
"&	c #F5F5F5",
"*	c #696969",
"=	c #EFEFEF",
"-	c #6D6D6D",
";	c #F0F0F0",
">	c #666666",
",	c #F2F2F2",
"'	c #5D5D5D",
")	c #737373",
"!	c #676767",
"~	c #727272",
"{	c #FDFDFD",
"]	c #FCFCFC",
"^	c #A3A3A3",
"/	c #646464",
"(	c #FEFEFE",
"_	c #C6C6C6",
":	c #FBFBFB",
"<	c #FAFAFA",
"[	c #B0B0B0",
"}	c #ACACAC",
"|	c #838383",
"1	c #D3D3D3",
"2	c #EDEDED",
"3	c #EAEAEA",
"4	c #E5E5E5",
"     .++.     ",
"     @++@     ",
"     @++@     ",
"     @++@     ",
"     #++#     ",
" $%##&++&##%$ ",
"  *=++++++=*  ",
"   -;++++;-   ",
"    >,++,>    ",
"')))!!;;!!)~)'",
"{+++]^//^]+++{",
"+++++(__(]:<(+",
"+++++++++[}|1+",
"2++++++++234&2"};
