/* XPM */
static char * fa6_envelope_14_xpm[] = {
"14 14 31 1",
" 	c #000000",
".	c #303030",
"+	c #5A5A5A",
"@	c #D9D9D9",
"#	c #F9F9F9",
"$	c #F8F8F8",
"%	c #FFFFFF",
"&	c #707070",
"*	c #ECECEC",
"=	c #ABABAB",
"-	c #4D4D4D",
";	c #CFCFCF",
">	c #FEFEFE",
",	c #D7D7D7",
"'	c #494949",
")	c #9F9F9F",
"!	c #FAFAFA",
"~	c #FBFBFB",
"{	c #484848",
"]	c #F0F0F0",
"^	c #848484",
"/	c #656565",
"(	c #E4E4E4",
"_	c #EEEEEE",
":	c #B6B6B6",
"<	c #454545",
"[	c #B0B0B0",
"}	c #E8E8E8",
"|	c #919191",
"1	c #909090",
"2	c #E3E3E3",
"              ",
".++++++++++++.",
"@############@",
"$%%%%%%%%%%%%$",
"&*%%%%%%%%%%*&",
"=-;>%%%%%%>;-=",
"%,')!%%%%~){,%",
"%%]^/(%%(/^_%%",
"%%%>:<[[<:>%%%",
"%%%%>}|12>%%%%",
"%%%%%%%%%%%%%%",
"@############@",
".++++++++++++.",
"              "};
