/* XPM */
static char * Mail_icon_241_xpm[] = {
"14 14 95 2",
"  	c None",
". 	c #B2CBEC",
"+ 	c #D2E5FA",
"@ 	c #C8DFF8",
"# 	c #D3E0F4",
"$ 	c #D0E3F9",
"% 	c #DDE3F2",
"& 	c #D0E5FB",
"* 	c #DFE4F2",
"= 	c #D1E5FA",
"- 	c #DDE4F3",
"; 	c #D4E4F7",
"> 	c #D5E5F8",
", 	c #E5EBF6",
"' 	c #A0BBDC",
") 	c #A6C8EC",
"! 	c #D3E4F5",
"~ 	c #E7F3FF",
"{ 	c #DDEEFF",
"] 	c #E3F1FF",
"^ 	c #E8F3FF",
"/ 	c #EAF4FF",
"( 	c #ECF5FF",
"_ 	c #ECF6FF",
": 	c #EBF5FF",
"< 	c #F9FCFF",
"[ 	c #DEE8F4",
"} 	c #92B0D2",
"| 	c #B6D3F3",
"1 	c #C8DEF4",
"2 	c #C8DCF1",
"3 	c #E8F3FE",
"4 	c #E5F2FF",
"5 	c #E9F4FF",
"6 	c #EDF6FF",
"7 	c #F4F9FE",
"8 	c #CFE0F0",
"9 	c #C4DCF3",
"0 	c #A5BCD9",
"a 	c #B6D3F2",
"b 	c #DAEDFE",
"c 	c #C8E1F9",
"d 	c #B0CDEA",
"e 	c #E6F1FC",
"f 	c #E6F2FF",
"g 	c #ECF4FC",
"h 	c #B1CEEA",
"i 	c #C5DFF8",
"j 	c #D8ECFD",
"k 	c #DBEDFE",
"l 	c #CCE4FB",
"m 	c #A9CBEB",
"n 	c #BDD5EC",
"o 	c #D6E6F6",
"p 	c #D9E8F6",
"q 	c #A7CAEB",
"r 	c #C9E3FB",
"s 	c #D9ECFD",
"t 	c #B7D3F3",
"u 	c #CDE3F7",
"v 	c #B8D2EC",
"w 	c #E4EEF9",
"x 	c #F1F8FF",
"y 	c #CBDFF3",
"z 	c #C9DDF1",
"A 	c #C9DEF1",
"B 	c #B7D2EC",
"C 	c #CCE2F7",
"D 	c #A0C5EA",
"E 	c #CCDFF2",
"F 	c #F0F7FE",
"G 	c #E4F0FC",
"H 	c #8EADD0",
"I 	c #B6D2F1",
"J 	c #DAEBFC",
"K 	c #D0E5FA",
"L 	c #D5E8FA",
"M 	c #D7E9FB",
"N 	c #D6E9FB",
"O 	c #D5E8FB",
"P 	c #DAEAFC",
"Q 	c #A5BBD8",
"R 	c #96B7DF",
"S 	c #88AFDA",
"T 	c #94B4D9",
"U 	c #99B3D5",
"V 	c #90B3DB",
"W 	c #9DB2D3",
"X 	c #8DB4DD",
"Y 	c #8DB3DC",
"Z 	c #9BB3D5",
"` 	c #93B3D9",
" .	c #95B4D9",
"..	c #8EAED5",
"+.	c #789ECB",
"                            ",
"                            ",
". + @ # $ % & * = - ; > , ' ",
") ! ~ { ] ^ / ( _ ( : < [ } ",
"| 1 2 3 ] 4 5 : : 6 7 8 9 0 ",
"a b c d e ^ f 5 6 g h i j 0 ",
"a k l m n o ( 6 p n q r s 0 ",
"t u v w x y z A y x w B C 0 ",
"D E F / ^ ( G G ( ^ / F E H ",
"I J K L M M N M N M O & P Q ",
"R S T U V W X W Y Z `  ...+.",
"                            ",
"                            ",
"                            "};
