/* XPM */
static char * memory14_xpm[] = {
"14 14 70 1",
" 	c None",
".	c #2F8534",
"+	c #318336",
"@	c #358039",
"#	c #4C9845",
"$	c #489541",
"%	c #4A8F44",
"&	c #4D9343",
"*	c #588C53",
"=	c #4E8B46",
"-	c #597458",
";	c #557A51",
">	c #526B50",
",	c #67825F",
"'	c #5F8751",
")	c #5D7952",
"!	c #5D7A4E",
"~	c #4D684B",
"{	c #4C8342",
"]	c #4A7248",
"^	c #478A3F",
"/	c #42823F",
"(	c #458842",
"_	c #468545",
":	c #4F7F51",
"<	c #5F6D54",
"[	c #579A48",
"}	c #5F9555",
"|	c #589B4A",
"1	c #5D8458",
"2	c #608E51",
"3	c #55764F",
"4	c #5F8254",
"5	c #576F4E",
"6	c #586B53",
"7	c #556D4C",
"8	c #4C524B",
"9	c #59764D",
"0	c #688F53",
"a	c #4B484A",
"b	c #64934D",
"c	c #4D514C",
"d	c #627D51",
"e	c #4E5949",
"f	c #5D7652",
"g	c #526349",
"h	c #52644D",
"i	c #4C6A47",
"j	c #445647",
"k	c #93AF56",
"l	c #6B9450",
"m	c #4A4A4A",
"n	c #5E8F4B",
"o	c #4C584A",
"p	c #587B4B",
"q	c #4A6846",
"r	c #538046",
"s	c #557C41",
"t	c #608140",
"u	c #718942",
"v	c #909645",
"w	c #529443",
"x	c #578E46",
"y	c #78A34E",
"z	c #97A754",
"A	c #BDB65B",
"B	c #C2B15C",
"C	c #C4B155",
"D	c #DDC66E",
"E	c #D8BF68",
"              ",
"              ",
"              ",
"         .+@  ",
"   #$%&*=-;>  ",
" ,')!~{]^/(_: ",
" <[}|12345678 ",
" 90abcdefghij ",
" klmnopqrstuv ",
"  wxyzABC     ",
"   DE         ",
"              ",
"              ",
"              "};
