/* XPM */
static char * speaker14_xpm[] = {
"14 14 98 2",
"  	c None",
". 	c #F6E341",
"+ 	c #EDDA3E",
"@ 	c #E0CB3E",
"# 	c #E5D23A",
"$ 	c #EDD935",
"% 	c #F3DF3A",
"& 	c #A09349",
"* 	c #8B8589",
"= 	c #8A868E",
"- 	c #9D9A9F",
"; 	c #B1ADAA",
"> 	c #BEB7AD",
", 	c #C7B958",
"' 	c #E5CD20",
") 	c #E5D028",
"! 	c #767470",
"~ 	c #74717E",
"{ 	c #85828F",
"] 	c #928F9C",
"^ 	c #ADAAB4",
"/ 	c #C3C0C8",
"( 	c #D7D6DD",
"_ 	c #D2D0C6",
": 	c #D2C47F",
"< 	c #DFC905",
"[ 	c #D0B718",
"} 	c #B1A44E",
"| 	c #67646E",
"1 	c #7D7987",
"2 	c #868390",
"3 	c #96939F",
"4 	c #AAA7B2",
"5 	c #BEBBC5",
"6 	c #C9C7CF",
"7 	c #CCCAD1",
"8 	c #B9B4A3",
"9 	c #D3C03B",
"0 	c #DDC517",
"a 	c #948A60",
"b 	c #6F6C77",
"c 	c #7D7A87",
"d 	c #797682",
"e 	c #7B7885",
"f 	c #9996A3",
"g 	c #A8A5B1",
"h 	c #ADAAB5",
"i 	c #ABA7B5",
"j 	c #999493",
"k 	c #D0BA34",
"l 	c #CEB520",
"m 	c #A79752",
"n 	c #6B6874",
"o 	c #83808C",
"p 	c #94919E",
"q 	c #676571",
"r 	c #6E6E76",
"s 	c #8E8B98",
"t 	c #8C8895",
"u 	c #83808D",
"v 	c #7E786C",
"w 	c #D8C01C",
"x 	c #B8A541",
"y 	c #BBA83F",
"z 	c #8E8470",
"A 	c #797784",
"B 	c #4C4C53",
"C 	c #7B7785",
"D 	c #7A7784",
"E 	c #74717D",
"F 	c #5E5C61",
"G 	c #CCB730",
"H 	c #7C7E78",
"I 	c #827B55",
"J 	c #B9A854",
"K 	c #B8A036",
"L 	c #877B56",
"M 	c #6E6760",
"N 	c #686465",
"O 	c #636065",
"P 	c #635E5C",
"Q 	c #726A44",
"R 	c #D9C31A",
"S 	c #787A73",
"T 	c #5D605D",
"U 	c #44443B",
"V 	c #6D684F",
"W 	c #897A36",
"X 	c #9A8421",
"Y 	c #A88E10",
"Z 	c #B7A022",
"` 	c #B59D0D",
" .	c #A69102",
"..	c #666967",
"+.	c #555958",
"@.	c #3E4242",
"#.	c #393C3C",
"$.	c #3A3F41",
"                            ",
"  . + @ # $                 ",
"% & * = - ; > , '           ",
") ! ~ { ] ^ / ( _ : <       ",
"[ } | 1 2 3 4 5 6 7 8 9     ",
"  0 a b c d e f g h i j k   ",
"    l m n o p q r s t u v w ",
"      x y z g A B C D E F G ",
"      H I J K L M N O P Q R ",
"      S T U V W X Y Z `  .  ",
"        ..+.@.#.$.          ",
"                            ",
"                            ",
"                            "};
