/* XPM */
static char * sun_rain14_xpm[] = {
"14 14 82 1",
" 	c None",
".	c #F7A340",
"+	c #CB7D23",
"@	c #FFCF7B",
"#	c #FED17E",
"$	c #FFD78A",
"%	c #FFD485",
"&	c #E48E26",
"*	c #F69A31",
"=	c #FCC56D",
"-	c #FFCC56",
";	c #FECB51",
">	c #FCCA4D",
",	c #CEC478",
"'	c #B8AE8F",
")	c #BDA269",
"!	c #D08023",
"~	c #FFC44D",
"{	c #FFBF3B",
"]	c #FCBE38",
"^	c #B3BFB6",
"/	c #BEE2F3",
"(	c #BCE4FB",
"_	c #BEDFF0",
":	c #72A4C3",
"<	c #FDAF42",
"[	c #FFB738",
"}	c #F4B446",
"|	c #D5B074",
"1	c #B0DDF3",
"2	c #90D6F7",
"3	c #8CD4F6",
"4	c #92D7F7",
"5	c #94CBEA",
"6	c #CE7B18",
"7	c #ECAA3F",
"8	c #98C5D9",
"9	c #BAE3F5",
"0	c #93D6F6",
"a	c #87D1F4",
"b	c #86D1F4",
"c	c #87D2F4",
"d	c #84C9ED",
"e	c #70B5DE",
"f	c #70B7DF",
"g	c #D78F40",
"h	c #94A9AC",
"i	c #88D0F5",
"j	c #7FCEF4",
"k	c #7ECEF3",
"l	c #7FCEF3",
"m	c #88D1F4",
"n	c #91D4F5",
"o	c #8CCEF1",
"p	c #4D8FB6",
"q	c #4F99C2",
"r	c #86D3F7",
"s	c #79CCF2",
"t	c #78CBF2",
"u	c #78CBF1",
"v	c #77CBF2",
"w	c #7CCDF2",
"x	c #86D1F5",
"y	c #3F7594",
"z	c #63B4E1",
"A	c #63B4E0",
"B	c #61B4E3",
"C	c #60B4E3",
"D	c #62B2DE",
"E	c #5196BC",
"F	c #4986AA",
"G	c #5095BB",
"H	c #4F92B8",
"I	c #5BA9D6",
"J	c #559DC7",
"K	c #4C8BB1",
"L	c #559DC8",
"M	c #2F576E",
"N	c #549BC4",
"O	c #5BA8D5",
"P	c #4885A9",
"Q	c #5BA8D4",
"    .         ",
"  +@#$%&      ",
" *=-;>,')     ",
" !~{]^/(_:    ",
" <[}|12345    ",
" 67890abcdef  ",
" ghijklllmnop ",
" qrstttuutvwx ",
" yzABCAAAAAAD ",
"  E   F    G  ",
"  H   I   JK  ",
"    L M N     ",
"   OP   Q     ",
"              "};
