/* XPM */
static char * weather14_xpm[] = {
"14 12 77 1",
" 	c #000000",
".	c #BEBEBE",
"+	c #4A4A4A",
"@	c #8B8B8B",
"#	c #8F8F8F",
"$	c #888888",
"%	c #FAFAFA",
"&	c #B3B3B3",
"*	c #767676",
"=	c #A2A2A2",
"-	c #1F1F1F",
";	c #7A7A7A",
">	c #FCFCFC",
",	c #A1A1A1",
"'	c #6A6A6A",
")	c #7E7E7E",
"!	c #909090",
"~	c #616161",
"{	c #191919",
"]	c #010101",
"^	c #939393",
"/	c #A3A3A3",
"(	c #919191",
"_	c #DADADA",
":	c #4B4B4B",
"<	c #E4E4E4",
"[	c #6E6E6E",
"}	c #484848",
"|	c #0C0C0C",
"1	c #C0C0C0",
"2	c #FEFEFE",
"3	c #7B7B7B",
"4	c #D4D4D4",
"5	c #C8C8C8",
"6	c #747474",
"7	c #FFFFFF",
"8	c #DFDFDF",
"9	c #383838",
"0	c #1E1E1E",
"a	c #A0A0A0",
"b	c #515151",
"c	c #5E5E5E",
"d	c #DDDDDD",
"e	c #CBCBCB",
"f	c #4D4D4D",
"g	c #777777",
"h	c #F8F8F8",
"i	c #414141",
"j	c #EDEDED",
"k	c #E2E2E2",
"l	c #868686",
"m	c #9E9E9E",
"n	c #212121",
"o	c #F7F7F7",
"p	c #F2F2F2",
"q	c #E3E3E3",
"r	c #E8E8E8",
"s	c #E0E0E0",
"t	c #828282",
"u	c #050505",
"v	c #4F4F4F",
"w	c #232323",
"x	c #3E3E3E",
"y	c #2A2A2A",
"z	c #272727",
"A	c #454545",
"B	c #4E4E4E",
"C	c #BABABA",
"D	c #B0B0B0",
"E	c #343434",
"F	c #959595",
"G	c #555555",
"H	c #656565",
"I	c #A7A7A7",
"J	c #2E2E2E",
"K	c #BBBBBB",
"L	c #545454",
"    .+        ",
" @#$%&*=-     ",
" ;>,')!~{]    ",
" ^/(_:&<_[}|  ",
"1234567777789 ",
"0$abcd777777ef",
" ghij77777777k",
" lmno77777777p",
"    #qrrrrrrst",
"    uvwxyzAwB]",
"    bC DE#!bC ",
"    FGHIJK FL "};
