/* XPM */
static char * wifi_14_xpm[] = {
"14 11 41 1",
" 	c #000000",
".	c #232323",
"+	c #5B5B5B",
"@	c #747474",
"#	c #131313",
"$	c #636363",
"%	c #BFBFBF",
"&	c #F3F3F3",
"*	c #FCFCFC",
"=	c #FBFBFB",
"-	c #323232",
";	c #CACACA",
">	c #F9F9F9",
",	c #FAFAFA",
"'	c #CECECE",
")	c #989898",
"!	c #818181",
"~	c #D6D6D6",
"{	c #FEFEFE",
"]	c #515151",
"^	c #676767",
"/	c #858585",
"(	c #252525",
"_	c #848484",
":	c #BABABA",
"<	c #D7D7D7",
"[	c #010101",
"}	c #424242",
"|	c #E1E1E1",
"1	c #F7F7F7",
"2	c #E9E9E9",
"3	c #555555",
"4	c #E3E3E3",
"5	c #9A9A9A",
"6	c #434343",
"7	c #030303",
"8	c #070707",
"9	c #777777",
"0	c #575757",
"a	c #505050",
"b	c #F6F6F6",
"    .+@@+.    ",
" #$%&*==*&%$# ",
"-;>,')!!)',>;-",
"~{%]      ]%{~",
"^/ (_:<<:_( /^",
"[[}|=1221=|}[[",
"  3456776543  ",
"     8998     ",
"     0,,0     ",
"     abba     ",
"     [++[     "};
